<?xml version="1.0" encoding="UTF-8"?>
<svg width="193px" height="67px" viewBox="0 0 193 67" version="1.1" xmlns="http://www.w3.org/2000/svg" xmlns:xlink="http://www.w3.org/1999/xlink">
    <!-- Generator: Sketch 58 (84663) - https://sketch.com -->
    <title>Group 32</title>
    <desc>Created with Sketch.</desc>
    <g id="Page-1" stroke="none" stroke-width="1" fill="none" fill-rule="evenodd">
        <g id="Boston" transform="translate(-119.000000, -104.000000)">
            <g id="Group-32" transform="translate(119.000000, 104.000000)">
                <g id="BOSTON_vyveska" transform="translate(1.000000, -0.000000)" fill="#FFFFFF">
                    <path d="M63.43425,19.5270833 C63.4265,17.2983712 63.11425,15.2846023 62.49775,13.4939015 C61.889,11.7032008 61.04625,10.1432008 59.9615,8.79814394 C58.88475,7.45308712 57.636,6.33109848 56.2235,5.43956439 C54.811,4.54015152 53.297,3.86405303 51.674,3.41816288 C50.94225,3.21282197 50.20225,3.05475379 49.45525,2.9432197 L49.45525,5.15075758 L48.43025,10.9416667 C48.863,11.0322727 49.28875,11.1580871 49.70725,11.3188636 C50.675,11.6955682 51.549,12.2488068 52.3215,12.9867045 C53.09425,13.7169697 53.71075,14.6314015 54.16325,15.7228598 C54.62375,16.814072 54.85775,18.0823106 54.86575,19.5270833 C54.85775,20.9721023 54.616,22.2324621 54.1555,23.331553 C53.68725,24.4230114 53.063,25.3374432 52.27475,26.0677083 C51.4865,26.8053598 50.60475,27.3588447 49.62925,27.7276705 C48.65375,28.104375 47.655,28.2887879 46.62475,28.2887879 C45.5635,28.2887879 44.54125,28.104375 43.558,27.7276705 C42.5825,27.3588447 41.7005,26.8053598 40.928,26.0677083 C40.1475,25.3374432 39.53125,24.4230114 39.0785,23.331553 C38.626,22.2324621 38.39175,20.9721023 38.384,19.5270833 C38.39175,18.0515341 38.626,16.7680303 39.08625,15.6689394 C39.54675,14.5698485 40.171,13.6554167 40.9515,12.9327841 C41.7395,12.2027652 42.62925,11.6647917 43.62025,11.3035985 C43.96475,11.1780303 44.31375,11.0748674 44.668,10.9936174 L43.6775,5.14829545 L43.6775,2.98310606 C43.007,3.09119318 42.34275,3.23621212 41.685,3.41816288 C40.054,3.86405303 38.5165,4.54015152 37.0885,5.43956439 C35.6605,6.33109848 34.39625,7.45308712 33.3115,8.79814394 C32.22675,10.1432008 31.36825,11.7032008 30.75175,13.4939015 C30.143,15.2846023 29.823,17.2983712 29.81525,19.5270833 C29.823,21.7713068 30.1275,23.7850758 30.72825,25.5681439 C31.3215,27.3588447 32.1565,28.9190909 33.21775,30.2562689 C34.287,31.6013258 35.52775,32.7080492 36.9325,33.5995833 C38.345,34.4911174 39.8745,35.1595833 41.5055,35.5978409 C43.14425,36.0434848 44.83775,36.2663068 46.578,36.2663068 C49.0675,36.2586742 51.34625,35.8438068 53.3985,35.0367235 C55.45875,34.2298864 57.23025,33.0845076 58.7285,31.5936932 C60.227,30.1102652 61.38175,28.3503409 62.1935,26.3057955 C63.013,24.2614962 63.4265,22.0020076 63.43425,19.5270833" id="Fill-1"></path>
                    <polyline id="Fill-2" points="45.34275 10.7796591 44.37825 5.08871212 44.37825 -1.56319402e-13 48.696 -1.56319402e-13 48.696 5.08871212 47.6885 10.7796591 45.34275 10.7796591"></polyline>
                    <path d="M24.81625,13.1708712 C24.8085,11.6645455 24.55875,10.3042235 24.05925,9.0899053 C23.552,7.87558712 22.84175,6.83804924 21.92875,5.9617803 C21.008,5.09339015 19.9155,4.42467803 18.65125,3.96352273 C17.39475,3.49473485 15.998,3.26403409 14.4685,3.25640152 L1.13686838e-13,3.25640152 L1.13686838e-13,35.4897538 L15.7795,35.4897538 C17.465,35.4821212 18.9555,35.2285227 20.251,34.7368371 C21.53875,34.2372727 22.6235,33.5454167 23.50525,32.6538826 C24.387,31.7623485 25.05025,30.7248106 25.49525,29.5336364 C25.94775,28.3500947 26.17425,27.0587121 26.17425,25.6676136 C26.17425,24.6761174 26.018,23.7385417 25.71375,22.8625189 C25.4015,21.9786174 24.949,21.1870455 24.34025,20.4799242 C23.73925,19.7804356 22.99025,19.204053 22.1005,18.7507765 C22.64675,18.3125189 23.13075,17.782178 23.5365,17.1673864 C23.94225,16.5525947 24.2545,15.8993939 24.473,15.2075379 C24.69925,14.5235606 24.81625,13.8395833 24.81625,13.1708712 Z M13.85975,10.5885985 C14.43725,10.5962311 14.91325,10.7346023 15.2955,11.0113447 C15.678,11.2878409 15.959,11.6337689 16.13825,12.0717803 C16.31775,12.5021591 16.40375,12.9633144 16.388,13.4476136 C16.3725,13.885625 16.271,14.2931061 16.076,14.677197 C15.88075,15.0615341 15.6,15.3766856 15.233,15.6150189 C14.8665,15.8531061 14.406,15.9762121 13.85975,15.9838447 L8.56875,15.9838447 L8.56875,10.5885985 L13.85975,10.5885985 Z M15.124,22.8085985 C15.40475,22.8085985 15.6545,22.839375 15.88075,22.900928 C16.10725,22.9622348 16.32575,23.0392992 16.5285,23.1313826 C16.9265,23.4157576 17.231,23.7924621 17.43375,24.2459848 C17.629,24.6992614 17.7225,25.175928 17.69925,25.6676136 C17.65225,26.1058712 17.53525,26.5131061 17.348,26.8898106 C17.153,27.2662689 16.87975,27.5661553 16.52075,27.7966098 C16.1695,28.0349432 15.717,28.1501705 15.17075,28.157803 L8.56875,28.157803 L8.56875,22.8085985 L15.124,22.8085985 Z M67.05075,25.7599432 C67.035,27.2047159 67.2615,28.5037311 67.7295,29.6488636 C68.19775,30.7939962 68.869,31.7854924 69.7275,32.6386174 C70.58575,33.4838636 71.58475,34.1909848 72.724,34.7444697 C73.8635,35.3055871 75.0965,35.7204545 76.41525,35.997197 C77.73425,36.2739394 79.092,36.4123106 80.489,36.4123106 C81.839,36.4123106 83.15775,36.2739394 84.45325,35.9895644 C85.74875,35.7051894 86.95825,35.2900758 88.0975,34.7289583 C89.22925,34.1680871 90.22825,33.4762311 91.09425,32.64625 C91.9605,31.8162689 92.6395,30.8555492 93.131,29.7564583 C93.62275,28.665 93.8725,27.4354167 93.88025,26.0827273 C93.8725,24.5224811 93.64625,23.185303 93.1935,22.0862121 C92.741,20.9794886 92.10875,20.0648106 91.2895,19.3271591 C90.47775,18.5968939 89.52575,18.0128788 88.43325,17.5672348 C87.333,17.1289773 86.14675,16.790928 84.85125,16.5525947 C83.5635,16.3142614 82.22125,16.1453598 80.81675,16.0298864 C79.771,15.9301705 78.8735,15.7841667 78.12425,15.591875 C77.37525,15.3998295 76.8055,15.0999432 76.4075,14.7003409 C76.0095,14.3007386 75.8065,13.7475 75.8065,13.0325 C75.8145,12.4253409 75.95475,11.9257765 76.228,11.5416856 C76.509,11.1497159 76.868,10.8498295 77.31275,10.6422727 C77.7575,10.4270833 78.2335,10.2810795 78.74875,10.1966288 C79.26375,10.1119318 79.771,10.0735227 80.25475,10.0814015 C81.03525,10.0814015 81.753,10.1811174 82.4165,10.4041856 C83.07975,10.619375 83.626,10.9574242 84.03975,11.4185795 C84.45325,11.8797348 84.6795,12.4792614 84.703,13.2169129 L92.70975,13.2169129 C92.733,11.8105492 92.51475,10.5501894 92.062,9.42795455 C91.6095,8.29833333 90.97725,7.3144697 90.15775,6.46897727 C89.3385,5.62373106 88.39425,4.91660985 87.31725,4.35549242 C86.24825,3.78674242 85.09325,3.36399621 83.868,3.07986742 C82.635,2.79524621 81.38625,2.65712121 80.11425,2.65712121 C78.772,2.65712121 77.46875,2.79524621 76.22025,3.07986742 C74.9715,3.36399621 73.80875,3.78674242 72.73975,4.35549242 C71.6705,4.91660985 70.734,5.62373106 69.93025,6.46897727 C69.13425,7.3144697 68.51,8.29833333 68.05725,9.42795455 C67.6125,10.5501894 67.38625,11.8105492 67.3785,13.2169129 C67.38625,14.5619697 67.6125,15.7378788 68.0495,16.7525189 C68.4865,17.7592803 69.09525,18.6276705 69.87575,19.3424242 C70.64825,20.0648106 71.54575,20.6567045 72.56025,21.1254924 C73.57475,21.5866477 74.6595,21.9402083 75.8145,22.1938068 C76.97725,22.4397727 78.1555,22.6012879 79.36525,22.6702273 C79.974,22.6933712 80.6295,22.7472917 81.316,22.8162311 C82.01075,22.8932955 82.66625,23.0314205 83.28275,23.2468561 C83.89925,23.4541667 84.4065,23.7848295 84.7965,24.2228409 C85.19475,24.6684848 85.3975,25.2680114 85.40525,26.0366856 C85.3975,26.5207386 85.24925,26.9511174 84.96825,27.327822 C84.6795,27.7042803 84.29725,28.0270644 83.81325,28.2885417 C83.3295,28.5421402 82.79875,28.7418182 82.20575,28.8804356 C81.61275,29.010928 81.01175,29.0801136 80.39525,29.0801136 C79.732,29.0801136 79.092,29.010928 78.4755,28.8725568 C77.859,28.7341856 77.305,28.526875 76.81325,28.2501326 C76.32175,27.9733902 75.9315,27.6274621 75.64275,27.2125947 C75.354,26.7974811 75.20575,26.3131818 75.19775,25.7599432 L67.05075,25.7599432 Z M104.1815,10.7730114 L104.1815,35.6744129 L112.469,35.6744129 L112.469,10.7730114 L120.47575,10.7730114 L120.47575,3.39477273 L96.12775,3.39477273 L96.12775,10.7730114 L104.1815,10.7730114 Z M156.20175,19.5347159 C156.194,17.3057576 155.88175,15.2922348 155.26525,13.5015341 C154.65675,11.7105871 153.81375,10.1505871 152.729,8.8055303 C151.65225,7.46047348 150.4035,6.33848485 148.991,5.44695076 C147.5785,4.54778409 146.06475,3.87143939 144.4415,3.42554924 C142.826,2.97202652 141.1715,2.74920455 139.486,2.74920455 C137.769,2.74920455 136.09125,2.97202652 134.4525,3.42554924 C132.8215,3.87143939 131.28425,4.54778409 129.856,5.44695076 C128.428,6.33848485 127.16375,7.46047348 126.079,8.8055303 C124.99425,10.1505871 124.13575,11.7105871 123.51925,13.5015341 C122.9105,15.2922348 122.59075,17.3057576 122.58275,19.5347159 C122.59075,21.7789394 122.895,23.7924621 123.496,25.5755303 C124.089,27.3662311 124.924,28.9264773 125.98525,30.2636553 C127.0545,31.6087121 128.29525,32.7154356 129.7,33.6069697 C131.1125,34.4985038 132.642,35.1672159 134.273,35.6052273 C135.91175,36.0508712 137.60525,36.2739394 139.3455,36.2739394 C141.835,36.2660606 144.1135,35.8511932 146.166,35.0441098 C148.22625,34.2372727 149.99775,33.0921402 151.496,31.6010795 C152.9945,30.1176515 154.1495,28.3577273 154.961,26.3131818 C155.7805,24.2688826 156.194,22.0093939 156.20175,19.5347159 Z M131.1515,19.5347159 C131.15925,18.0589205 131.39325,16.7754167 131.85375,15.6763258 C132.31425,14.5774811 132.9385,13.662803 133.719,12.9404167 C134.50725,12.2101515 135.39675,11.672178 136.38775,11.3109848 C137.379,10.9497917 138.409,10.7730114 139.486,10.7730114 C140.516,10.7730114 141.515,10.9574242 142.47475,11.32625 C143.4425,11.7029545 144.3165,12.2564394 145.089,12.9940909 C145.86175,13.7243561 146.47825,14.6387879 146.93075,15.7302462 C147.39125,16.8217045 147.6255,18.089697 147.63325,19.5347159 C147.6255,20.9794886 147.3835,22.2398485 146.923,23.3389394 C146.45475,24.4303977 145.8305,25.3448295 145.04225,26.0750947 C144.25425,26.8127462 143.37225,27.3662311 142.39675,27.7350568 C141.42125,28.1117614 140.4225,28.2961742 139.39225,28.2961742 C138.331,28.2961742 137.30875,28.1117614 136.3255,27.7350568 C135.35,27.3662311 134.468,26.8127462 133.6955,26.0750947 C132.915,25.3448295 132.2985,24.4303977 131.846,23.3389394 C131.39325,22.2398485 131.15925,20.9794886 131.1515,19.5347159 Z M187.29225,35.7664962 L189.82075,35.7664962 L189.82075,3.39477273 L181.25225,3.39477273 L181.25225,19.1656439 L164.16175,3.25640152 L161.49275,3.25640152 L161.49275,35.6744129 L170.0615,35.6744129 L170.0615,19.0272727 L187.29225,35.7664962 L187.29225,35.7664962 Z" id="Fill-3"></path>
                </g>
                <g id="Group-8" transform="translate(0.000000, 44.000000)">
                    <polygon id="Rectangle" fill="#D0021B" points="0 5 193 5 193 23 0 23"></polygon>
                    <text id="detailing-STUDIO" font-family="Exo2.0-ExtraBold, Exo 2.0" font-size="21" font-weight="600" letter-spacing="0.200000003" fill="#FFFFFF">
                        <tspan x="2.40264027" y="21">DETAILING STUDI</tspan>
                        <tspan x="176.93064" y="21">O</tspan>
                    </text>
                </g>
            </g>
        </g>
    </g>
</svg>