<?xml version="1.0" encoding="UTF-8"?>
<svg width="193px" height="67px" viewBox="0 0 193 67" version="1.1" xmlns="http://www.w3.org/2000/svg" xmlns:xlink="http://www.w3.org/1999/xlink">
    <!-- Generator: Sketch 58 (84663) - https://sketch.com -->
    <title>Group 32</title>
    <desc>Created with Sketch.</desc>
    <g id="Page-1" stroke="none" stroke-width="1" fill="none" fill-rule="evenodd">
        <g id="Boston" transform="translate(-119.000000, -104.000000)">
            <g id="Group-32" transform="translate(119.000000, 104.000000)">
                <g id="BOSTON_vyveska" transform="translate(1.000000, -0.000000)" fill="#FFFFFF">
                    <path d="M63.43425,19.5270833 C63.4265,17.2983712 63.11425,15.2846023 62.49775,13.4939015 C61.889,11.7032008 61.04625,10.1432008 59.9615,8.79814394 C58.88475,7.45308712 57.636,6.33109848 56.2235,5.43956439 C54.811,4.54015152 53.297,3.86405303 51.674,3.41816288 C50.94225,3.21282197 50.20225,3.05475379 49.45525,2.9432197 L49.45525,5.15075758 L48.43025,10.9416667 C48.863,11.0322727 49.28875,11.1580871 49.70725,11.3188636 C50.675,11.6955682 51.549,12.2488068 52.3215,12.9867045 C53.09425,13.7169697 53.71075,14.6314015 54.16325,15.7228598 C54.62375,16.814072 54.85775,18.0823106 54.86575,19.5270833 C54.85775,20.9721023 54.616,22.2324621 54.1555,23.331553 C53.68725,24.4230114 53.063,25.3374432 52.27475,26.0677083 C51.4865,26.8053598 50.60475,27.3588447 49.62925,27.7276705 C48.65375,28.104375 47.655,28.2887879 46.62475,28.2887879 C45.5635,28.2887879 44.54125,28.104375 43.558,27.7276705 C42.5825,27.3588447 41.7005,26.8053598 40.928,26.0677083 C40.1475,25.3374432 39.53125,24.4230114 39.0785,23.331553 C38.626,22.2324621 38.39175,20.9721023 38.384,19.5270833 C38.39175,18.0515341 38.626,16.7680303 39.08625,15.6689394 C39.54675,14.5698485 40.171,13.6554167 40.9515,12.9327841 C41.7395,12.2027652 42.62925,11.6647917 43.62025,11.3035985 C43.96475,11.1780303 44.31375,11.0748674 44.668,10.9936174 L43.6775,5.14829545 L43.6775,2.98310606 C43.007,3.09119318 42.34275,3.23621212 41.685,3.41816288 C40.054,3.86405303 38.5165,4.54015152 37.0885,5.43956439 C35.6605,6.33109848 34.39625,7.45308712 33.3115,8.79814394 C32.22675,10.1432008 31.36825,11.7032008 30.75175,13.4939015 C30.143,15.2846023 29.823,17.2983712 29.81525,19.5270833 C29.823,21.7713068 30.1275,23.7850758 30.72825,25.5681439 C31.3215,27.3588447 32.1565,28.9190909 33.21775,30.2562689 C34.287,31.6013258 35.52775,32.7080492 36.9325,33.5995833 C38.345,34.4911174 39.8745,35.1595833 41.5055,35.5978409 C43.14425,36.0434848 44.83775,36.2663068 46.578,36.2663068 C49.0675,36.2586742 51.34625,35.8438068 53.3985,35.0367235 C55.45875,34.2298864 57.23025,33.0845076 58.7285,31.5936932 C60.227,30.1102652 61.38175,28.3503409 62.1935,26.3057955 C63.013,24.2614962 63.4265,22.0020076 63.43425,19.5270833" id="Fill-1"></path>
                    <polyline id="Fill-2" points="45.34275 10.7796591 44.37825 5.08871212 44.37825 -1.56319402e-13 48.696 -1.56319402e-13 48.696 5.08871212 47.6885 10.7796591 45.34275 10.7796591"></polyline>
                    <path d="M24.81625,13.1708712 C24.8085,11.6645455 24.55875,10.3042235 24.05925,9.0899053 C23.552,7.87558712 22.84175,6.83804924 21.92875,5.9617803 C21.008,5.09339015 19.9155,4.42467803 18.65125,3.96352273 C17.39475,3.49473485 15.998,3.26403409 14.4685,3.25640152 L1.13686838e-13,3.25640152 L1.13686838e-13,35.4897538 L15.7795,35.4897538 C17.465,35.4821212 18.9555,35.2285227 20.251,34.7368371 C21.53875,34.2372727 22.6235,33.5454167 23.50525,32.6538826 C24.387,31.7623485 25.05025,30.7248106 25.49525,29.5336364 C25.94775,28.3500947 26.17425,27.0587121 26.17425,25.6676136 C26.17425,24.6761174 26.018,23.7385417 25.71375,22.8625189 C25.4015,21.9786174 24.949,21.1870455 24.34025,20.4799242 C23.73925,19.7804356 22.99025,19.204053 22.1005,18.7507765 C22.64675,18.3125189 23.13075,17.782178 23.5365,17.1673864 C23.94225,16.5525947 24.2545,15.8993939 24.473,15.2075379 C24.69925,14.5235606 24.81625,13.8395833 24.81625,13.1708712 Z M13.85975,10.5885985 C14.43725,10.5962311 14.91325,10.7346023 15.2955,11.0113447 C15.678,11.2878409 15.959,11.6337689 16.13825,12.0717803 C16.31775,12.5021591 16.40375,12.9633144 16.388,13.4476136 C16.3725,13.885625 16.271,14.2931061 16.076,14.677197 C15.88075,15.0615341 15.6,15.3766856 15.233,15.6150189 C14.8665,15.8531061 14.406,15.9762121 13.85975,15.9838447 L8.56875,15.9838447 L8.56875,10.5885985 L13.85975,10.5885985 Z M15.124,22.8085985 C15.40475,22.8085985 15.6545,22.839375 15.88075,22.900928 C16.10725,22.9622348 16.32575,23.0392992 16.5285,23.1313826 C16.9265,23.4157576 17.231,23.7924621 17.43375,24.2459848 C17.629,24.6992614 17.7225,25.175928 17.69925,25.6676136 C17.65225,26.1058712 17.53525,26.5131061 17.348,26.8898106 C17.153,27.2662689 16.87975,27.5661553 16.52075,27.7966098 C16.1695,28.0349432 15.717,28.1501705 15.17075,28.157803 L8.56875,28.157803 L8.56875,22.8085985 L15.124,22.8085985 Z M67.05075,25.7599432 C67.035,27.2047159 67.2615,28.5037311 67.7295,29.6488636 C68.19775,30.7939962 68.869,31.7854924 69.7275,32.6386174 C70.58575,33.4838636 71.58475,34.1909848 72.724,34.7444697 C73.8635,35.3055871 75.0965,35.7204545 76.41525,35.997197 C77.73425,36.2739394 79.092,36.4123106 80.489,36.4123106 C81.839,36.4123106 83.15775,36.2739394 84.45325,35.9895644 C85.74875,35.7051894 86.95825,35.2900758 88.0975,34.7289583 C89.22925,34.1680871 90.22825,33.4762311 91.09425,32.64625 C91.9605,31.8162689 92.6395,30.8555492 93.131,29.7564583 C93.62275,28.665 93.8725,27.4354167 93.88025,26.0827273 C93.8725,24.5224811 93.64625,23.185303 93.1935,22.0862121 C92.741,20.9794886 92.10875,20.0648106 91.2895,19.3271591 C90.47775,18.5968939 89.52575,18.0128788 88.43325,17.5672348 C87.333,17.1289773 86.14675,16.790928 84.85125,16.5525947 C83.5635,16.3142614 82.22125,16.1453598 80.81675,16.0298864 C79.771,15.9301705 78.8735,15.7841667 78.12425,15.591875 C77.37525,15.3998295 76.8055,15.0999432 76.4075,14.7003409 C76.0095,14.3007386 75.8065,13.7475 75.8065,13.0325 C75.8145,12.4253409 75.95475,11.9257765 76.228,11.5416856 C76.509,11.1497159 76.868,10.8498295 77.31275,10.6422727 C77.7575,10.4270833 78.2335,10.2810795 78.74875,10.1966288 C79.26375,10.1119318 79.771,10.0735227 80.25475,10.0814015 C81.03525,10.0814015 81.753,10.1811174 82.4165,10.4041856 C83.07975,10.619375 83.626,10.9574242 84.03975,11.4185795 C84.45325,11.8797348 84.6795,12.4792614 84.703,13.2169129 L92.70975,13.2169129 C92.733,11.8105492 92.51475,10.5501894 92.062,9.42795455 C91.6095,8.29833333 90.97725,7.3144697 90.15775,6.46897727 C89.3385,5.62373106 88.39425,4.91660985 87.31725,4.35549242 C86.24825,3.78674242 85.09325,3.36399621 83.868,3.07986742 C82.635,2.79524621 81.38625,2.65712121 80.11425,2.65712121 C78.772,2.65712121 77.46875,2.79524621 76.22025,3.07986742 C74.9715,3.36399621 73.80875,3.78674242 72.73975,4.35549242 C71.6705,4.91660985 70.734,5.62373106 69.93025,6.46897727 C69.13425,7.3144697 68.51,8.29833333 68.05725,9.42795455 C67.6125,10.5501894 67.38625,11.8105492 67.3785,13.2169129 C67.38625,14.5619697 67.6125,15.7378788 68.0495,16.7525189 C68.4865,17.7592803 69.09525,18.6276705 69.87575,19.3424242 C70.64825,20.0648106 71.54575,20.6567045 72.56025,21.1254924 C73.57475,21.5866477 74.6595,21.9402083 75.8145,22.1938068 C76.97725,22.4397727 78.1555,22.6012879 79.36525,22.6702273 C79.974,22.6933712 80.6295,22.7472917 81.316,22.8162311 C82.01075,22.8932955 82.66625,23.0314205 83.28275,23.2468561 C83.89925,23.4541667 84.4065,23.7848295 84.7965,24.2228409 C85.19475,24.6684848 85.3975,25.2680114 85.40525,26.0366856 C85.3975,26.5207386 85.24925,26.9511174 84.96825,27.327822 C84.6795,27.7042803 84.29725,28.0270644 83.81325,28.2885417 C83.3295,28.5421402 82.79875,28.7418182 82.20575,28.8804356 C81.61275,29.010928 81.01175,29.0801136 80.39525,29.0801136 C79.732,29.0801136 79.092,29.010928 78.4755,28.8725568 C77.859,28.7341856 77.305,28.526875 76.81325,28.2501326 C76.32175,27.9733902 75.9315,27.6274621 75.64275,27.2125947 C75.354,26.7974811 75.20575,26.3131818 75.19775,25.7599432 L67.05075,25.7599432 Z M104.1815,10.7730114 L104.1815,35.6744129 L112.469,35.6744129 L112.469,10.7730114 L120.47575,10.7730114 L120.47575,3.39477273 L96.12775,3.39477273 L96.12775,10.7730114 L104.1815,10.7730114 Z M156.20175,19.5347159 C156.194,17.3057576 155.88175,15.2922348 155.26525,13.5015341 C154.65675,11.7105871 153.81375,10.1505871 152.729,8.8055303 C151.65225,7.46047348 150.4035,6.33848485 148.991,5.44695076 C147.5785,4.54778409 146.06475,3.87143939 144.4415,3.42554924 C142.826,2.97202652 141.1715,2.74920455 139.486,2.74920455 C137.769,2.74920455 136.09125,2.97202652 134.4525,3.42554924 C132.8215,3.87143939 131.28425,4.54778409 129.856,5.44695076 C128.428,6.33848485 127.16375,7.46047348 126.079,8.8055303 C124.99425,10.1505871 124.13575,11.7105871 123.51925,13.5015341 C122.9105,15.2922348 122.59075,17.3057576 122.58275,19.5347159 C122.59075,21.7789394 122.895,23.7924621 123.496,25.5755303 C124.089,27.3662311 124.924,28.9264773 125.98525,30.2636553 C127.0545,31.6087121 128.29525,32.7154356 129.7,33.6069697 C131.1125,34.4985038 132.642,35.1672159 134.273,35.6052273 C135.91175,36.0508712 137.60525,36.2739394 139.3455,36.2739394 C141.835,36.2660606 144.1135,35.8511932 146.166,35.0441098 C148.22625,34.2372727 149.99775,33.0921402 151.496,31.6010795 C152.9945,30.1176515 154.1495,28.3577273 154.961,26.3131818 C155.7805,24.2688826 156.194,22.0093939 156.20175,19.5347159 Z M131.1515,19.5347159 C131.15925,18.0589205 131.39325,16.7754167 131.85375,15.6763258 C132.31425,14.5774811 132.9385,13.662803 133.719,12.9404167 C134.50725,12.2101515 135.39675,11.672178 136.38775,11.3109848 C137.379,10.9497917 138.409,10.7730114 139.486,10.7730114 C140.516,10.7730114 141.515,10.9574242 142.47475,11.32625 C143.4425,11.7029545 144.3165,12.2564394 145.089,12.9940909 C145.86175,13.7243561 146.47825,14.6387879 146.93075,15.7302462 C147.39125,16.8217045 147.6255,18.089697 147.63325,19.5347159 C147.6255,20.9794886 147.3835,22.2398485 146.923,23.3389394 C146.45475,24.4303977 145.8305,25.3448295 145.04225,26.0750947 C144.25425,26.8127462 143.37225,27.3662311 142.39675,27.7350568 C141.42125,28.1117614 140.4225,28.2961742 139.39225,28.2961742 C138.331,28.2961742 137.30875,28.1117614 136.3255,27.7350568 C135.35,27.3662311 134.468,26.8127462 133.6955,26.0750947 C132.915,25.3448295 132.2985,24.4303977 131.846,23.3389394 C131.39325,22.2398485 131.15925,20.9794886 131.1515,19.5347159 Z M187.29225,35.7664962 L189.82075,35.7664962 L189.82075,3.39477273 L181.25225,3.39477273 L181.25225,19.1656439 L164.16175,3.25640152 L161.49275,3.25640152 L161.49275,35.6744129 L170.0615,35.6744129 L170.0615,19.0272727 L187.29225,35.7664962 L187.29225,35.7664962 Z" id="Fill-3"></path>
                </g>
                <g id="Group-8" transform="translate(0.000000, 49.000000)">
                    <polygon id="Rectangle" fill="#D0021B" points="0 0 193 0 193 18 0 18"></polygon>
                    <path d="M3.66264027,16 L3.66264027,1.51 L4.72183894,1.4503548 C6.61540399,1.35011784 8.24332577,1.3 9.60564027,1.3 C12.0416524,1.3 13.7321355,1.82499475 14.6771403,2.875 C15.622145,3.92500525 16.0946403,5.88498565 16.0946403,8.755 C16.0946403,11.6250143 15.622145,13.5849947 14.6771403,14.635 C13.7321355,15.6850052 12.0416524,16.21 9.60564027,16.21 C7.57563012,16.21 5.59464993,16.1400007 3.66264027,16 Z M7.61064027,4.261 L7.61064027,13.228 L8.22215982,13.24144 C8.59007878,13.24648 9.0512375,13.249 9.60564027,13.249 C10.5156448,13.249 11.1316387,12.944503 11.4536403,12.3355 C11.7756419,11.726497 11.9366403,10.5330089 11.9366403,8.755 C11.9366403,6.97699111 11.7756419,5.78000308 11.4536403,5.164 C11.1316387,4.54799692 10.5156448,4.24 9.60564027,4.24 L7.61064027,4.261 Z M28.5586403,12.997 L28.7476403,15.832 L28.3665427,15.8704274 C26.9515617,15.9988097 24.6846124,16.063 21.5656403,16.063 C20.5716353,16.063 19.7736433,15.7795028 19.1716403,15.2125 C18.5696373,14.6454972 18.2686403,13.8930047 18.2686403,12.955 L18.2686403,4.555 C18.2686403,3.61699531 18.5731372,2.86450283 19.1821403,2.2975 C19.7911433,1.73049716 20.5856354,1.447 21.5656403,1.447 L23.2551732,1.45398671 C25.7834345,1.47611131 27.6142433,1.55078197 28.7476403,1.678 L28.5586403,4.513 L23.1196403,4.513 C22.5176373,4.513 22.2166403,4.81399699 22.2166403,5.416 L22.2166403,7.18 L27.7816403,7.18 L27.7816403,9.889 L22.2166403,9.889 L22.2166403,12.094 C22.2166403,12.696003 22.5176373,12.997 23.1196403,12.997 L28.5586403,12.997 Z M42.2196403,4.555 L38.0406403,4.555 L38.0406403,16 L34.0926403,16 L34.0926403,4.555 L29.9346403,4.555 L29.9346403,1.51 L42.2196403,1.51 L42.2196403,4.555 Z M50.7356403,12.556 L46.2836403,12.556 L45.4226403,16 L41.3906403,16 L45.3596403,2.539 C45.4296406,2.23099846 45.5871391,1.98250094 45.8321403,1.7935 C46.0771415,1.60449905 46.3606387,1.51 46.6826403,1.51 L50.3366403,1.51 C50.6586419,1.51 50.9421391,1.60449905 51.1871403,1.7935 C51.4321415,1.98250094 51.5966399,2.23099846 51.6806403,2.539 L55.6286403,16 L51.5966403,16 L50.7356403,12.556 Z M50.0006403,9.7 L49.0766403,5.983 L48.94364,5.32966536 C48.8689733,4.94388789 48.822307,4.6576676 48.8036403,4.471 L48.2366403,4.471 C48.1386398,5.00300266 48.0406408,5.50699762 47.9426403,5.983 L47.0186403,9.7 L50.0006403,9.7 Z M60.9106403,16 L57.0046403,16 L57.0046403,1.51 L60.9106403,1.51 L60.9106403,16 Z M67.5576403,1.51 L67.5576403,11.947 C67.5576403,12.549003 67.886637,12.85 68.5446403,12.85 L73.4586403,12.85 L73.6476403,15.811 L73.210629,15.8588802 C71.8233675,15.9949607 69.7500541,16.063 66.9906403,16.063 C65.9126349,16.063 65.0796432,15.7725029 64.4916403,15.1915 C63.9036373,14.6104971 63.6096403,13.8370048 63.6096403,12.871 L63.6096403,1.51 L67.5576403,1.51 Z M79.2446403,16 L75.3386403,16 L75.3386403,1.51 L79.2446403,1.51 L79.2446403,16 Z M94.8166403,1.51 L94.8166403,14.614 C94.8166403,15.5380046 94.3616448,16 93.4516403,16 L91.5826403,16 C91.2046384,16 90.9106413,15.9125009 90.7006403,15.7375 C90.5206394,15.5874992 90.335498,15.3475013 90.145212,15.0175006 L86.6056403,8.629 C86.2276384,7.91499643 85.9126416,7.12400434 85.6606403,6.256 L85.4926403,6.256 C85.6046409,7.12400434 85.6606403,7.94999608 85.6606403,8.734 L85.6606403,16 L81.9856403,16 L81.9856403,2.896 C81.9856403,1.97199538 82.4476357,1.51 83.3716403,1.51 L85.2196403,1.51 C85.5976422,1.51 85.8881393,1.59749912 86.0911403,1.7725 C86.2941413,1.94750087 86.5146391,2.2449979 86.7526403,2.665 L90.0706403,8.65 C90.420642,9.28000315 90.7846384,10.0849951 91.1626403,11.065 L91.3306403,11.065 L91.2569258,10.2661414 C91.2040686,9.62471331 91.1726403,9.0440026 91.1626403,8.524 L91.1626403,1.51 L94.8166403,1.51 Z M109.14964,7.663 L109.14964,16 L106.25164,16 L105.91564,14.53 C105.481638,15.0060024 104.914644,15.4189982 104.21464,15.769 C103.514637,16.1190017 102.716645,16.294 101.82064,16.294 C100.168632,16.294 98.968144,15.7060059 98.2191403,14.53 C97.4701365,13.3539941 97.0956403,11.4220134 97.0956403,8.734 C97.0956403,5.933986 97.5926353,3.98100553 98.5866403,2.875 C99.5806453,1.76899447 101.309628,1.216 103.77364,1.216 C105.607649,1.216 107.217633,1.40499811 108.60364,1.783 L108.28864,4.639 C106.776633,4.59699979 105.285648,4.576 103.81564,4.576 C102.793635,4.576 102.107642,4.8454973 101.75764,5.3845 C101.407639,5.92350269 101.23264,7.05399139 101.23264,8.776 C101.23264,10.386008 101.379639,11.4779971 101.67364,12.052 C101.967642,12.6260029 102.520636,12.913 103.33264,12.913 C104.004644,12.913 104.683637,12.7940012 105.36964,12.556 L105.36964,7.663 L109.14964,7.663 Z M121.75064,10.834 L118.85264,9.679 C117.718635,9.21699769 116.913643,8.65350332 116.43764,7.9885 C115.961638,7.32349667 115.72364,6.45200539 115.72364,5.374 C115.72364,3.74999188 116.136636,2.65450283 116.96264,2.0875 C117.788644,1.52049716 119.25863,1.237 121.37264,1.237 C123.40265,1.237 125.082634,1.45399783 126.41264,1.888 L126.16064,4.471 L121.579281,4.40862999 L121.579281,4.40862999 L121.33064,4.408 C120.658637,4.408 120.207141,4.46399944 119.97614,4.576 C119.745139,4.68800056 119.62964,4.93299811 119.62964,5.311 C119.62964,5.63300161 119.727639,5.88149912 119.92364,6.0565 C120.119641,6.23150087 120.483638,6.40999909 121.01564,6.592 L123.68264,7.621 C124.844646,8.08300231 125.663638,8.64999664 126.13964,9.322 C126.615643,9.99400336 126.85364,10.8759945 126.85364,11.968 C126.85364,13.6060082 126.444144,14.7329969 125.62514,15.349 C124.806136,15.9650031 123.325651,16.273 121.18364,16.273 C119.335631,16.273 117.564649,16.0630021 115.87064,15.643 L116.10164,12.85 L121.018966,12.954328 C121.074429,12.954776 121.12232,12.955 121.16264,12.955 C121.862644,12.955 122.328139,12.8955006 122.55914,12.7765 C122.790141,12.6574994 122.90564,12.4160018 122.90564,12.052 C122.90564,11.7159983 122.825141,11.4710008 122.66414,11.317 C122.503139,11.1629992 122.198643,11.0020008 121.75064,10.834 Z M140.28364,4.555 L136.10464,4.555 L136.10464,16 L132.15664,16 L132.15664,4.555 L127.99864,4.555 L127.99864,1.51 L140.28364,1.51 L140.28364,4.555 Z M154.19664,1.51 L154.19664,10.12 C154.19664,12.3740113 153.752145,13.9664953 152.86314,14.8975 C151.974136,15.8285047 150.444651,16.294 148.27464,16.294 C145.950629,16.294 144.312645,15.8285047 143.36064,14.8975 C142.408636,13.9664953 141.93264,12.3740113 141.93264,10.12 L141.93264,1.51 L145.88064,1.51 L145.88064,10.12 C145.88064,11.3520062 146.034639,12.1849978 146.34264,12.619 C146.650642,13.0530022 147.224636,13.27 148.06464,13.27 C148.904645,13.27 149.478639,13.0530022 149.78664,12.619 C150.094642,12.1849978 150.24864,11.3520062 150.24864,10.12 L150.24864,1.51 L154.19664,1.51 Z M156.81164,16 L156.81164,1.51 L157.870839,1.4503548 C159.764404,1.35011784 161.392326,1.3 162.75464,1.3 C165.190652,1.3 166.881136,1.82499475 167.82614,2.875 C168.771145,3.92500525 169.24364,5.88498565 169.24364,8.755 C169.24364,11.6250143 168.771145,13.5849947 167.82614,14.635 C166.881136,15.6850052 165.190652,16.21 162.75464,16.21 C160.72463,16.21 158.74365,16.1400007 156.81164,16 Z M160.75964,4.261 L160.75964,13.228 L161.37116,13.24144 C161.739079,13.24648 162.200238,13.249 162.75464,13.249 C163.664645,13.249 164.280639,12.944503 164.60264,12.3355 C164.924642,11.726497 165.08564,10.5330089 165.08564,8.755 C165.08564,6.97699111 164.924642,5.78000308 164.60264,5.164 C164.280639,4.54799692 163.664645,4.24 162.75464,4.24 L160.75964,4.261 Z M184.23864,1.216 C185.890649,1.216 187.171636,1.43649779 188.08164,1.8775 C188.991645,2.3185022 189.663638,3.08149457 190.09764,4.1665 C190.531642,5.25150542 190.74864,6.78099013 190.74864,8.755 C190.74864,10.7290099 190.531642,12.2584946 190.09764,13.3435 C189.663638,14.4285054 188.991645,15.1914978 188.08164,15.6325 C187.171636,16.0735022 185.890649,16.294 184.23864,16.294 C181.802628,16.294 180.112145,15.7655053 179.16714,14.7085 C178.222136,13.6514947 177.74964,11.6670146 177.74964,8.755 C177.74964,5.84298544 178.222136,3.85850528 179.16714,2.8015 C180.112145,1.74449471 181.802628,1.216 184.23864,1.216 Z M175.44964,1.51 L175.44964,16 L171.54364,16 L171.54364,1.51 L175.44964,1.51 Z M184.23864,4.24 C183.314636,4.24 182.691642,4.54799692 182.36964,5.164 C182.047639,5.78000308 181.88664,6.97699111 181.88664,8.755 C181.88664,10.5330089 182.047639,11.7299969 182.36964,12.346 C182.691642,12.9620031 183.314636,13.27 184.23864,13.27 C185.162645,13.27 185.785639,12.9620031 186.10764,12.346 C186.429642,11.7299969 186.59064,10.5330089 186.59064,8.755 C186.59064,6.97699111 186.429642,5.78000308 186.10764,5.164 C185.785639,4.54799692 185.162645,4.24 184.23864,4.24 Z" id="DETAILINGSTUDIO" fill="#FFFFFF" fill-rule="nonzero"></path>
                </g>
            </g>
        </g>
    </g>
</svg>