<svg width="48" height="62" viewBox="0 0 48 62" fill="none" xmlns="http://www.w3.org/2000/svg">
<path fill-rule="evenodd" clip-rule="evenodd" d="M23.7694 51C23.7694 51 25.8482 47.4711 26.8597 47.3398C38.5272 45.825 47.5388 35.8496 47.5388 23.7694C47.5388 10.6419 36.8969 0 23.7694 0C10.6419 0 0 10.6419 0 23.7694C0 35.8281 8.97963 45.7895 20.6169 47.3316C21.6483 47.4683 23.7694 51 23.7694 51Z" fill="#D0021B"/>
<path fill-rule="evenodd" clip-rule="evenodd" d="M23.7694 28C25.9785 28 27.7694 26.2091 27.7694 24C27.7694 21.7909 25.9785 20 23.7694 20C21.5603 20 19.7694 21.7909 19.7694 24C19.7694 26.2091 21.5603 28 23.7694 28Z" fill="white"/>
<path fill-rule="evenodd" clip-rule="evenodd" d="M23.7694 62C25.4263 62 26.7694 60.6569 26.7694 59C26.7694 57.3431 25.4263 56 23.7694 56C22.1126 56 20.7694 57.3431 20.7694 59C20.7694 60.6569 22.1126 62 23.7694 62Z" fill="#D0021B"/>
</svg>
