<svg width="24" height="30" viewBox="0 0 24 30" fill="none" xmlns="http://www.w3.org/2000/svg">
<path fill-rule="evenodd" clip-rule="evenodd" d="M2.40306 5.22852H16.301C17.599 5.22852 18.6582 6.2877 18.6643 7.59178V27.5326C18.6643 28.8367 17.6051 29.8959 16.301 29.8959H2.40306C1.09898 29.8959 0.0397949 28.8367 0.0397949 27.5326V7.59178C0.0397949 6.2877 1.09898 5.22852 2.40306 5.22852ZM16.2949 28.2367C16.6867 28.2367 17.0051 27.9183 17.0051 27.5265V7.59178C17.0051 7.19994 16.6867 6.88158 16.2949 6.88158H2.39694C2.0051 6.88158 1.68673 7.19994 1.68673 7.59178V27.5265C1.68673 27.9183 2.0051 28.2367 2.39694 28.2367H16.2949Z" fill="#D0021B"/>
<path d="M21.6152 0H7.71727C6.41319 0 5.354 1.05918 5.354 2.36327C5.354 2.82245 5.72135 3.1898 6.18053 3.1898C6.63972 3.1898 7.00707 2.82245 7.00707 2.36327C7.00707 1.97143 7.32543 1.65306 7.71727 1.65306H21.6152C22.0071 1.65306 22.3254 1.97143 22.3254 2.36327V22.3041C22.3254 22.6959 22.0071 23.0143 21.6152 23.0143C21.156 23.0143 20.7887 23.3816 20.7887 23.8408C20.7887 24.3 21.156 24.6673 21.6152 24.6673C22.9193 24.6673 23.9785 23.6082 23.9785 22.3041V2.36327C23.9785 1.05918 22.9193 0 21.6152 0Z" fill="#D0021B"/>
<path d="M3.14893 11.3464H5.35413" stroke="#D0021B" stroke-width="2"/>
<path d="M7.94897 11.3464H14.6664" stroke="#D0021B" stroke-width="2"/>
<path d="M3.14893 15.3464H5.35413" stroke="#D0021B" stroke-width="2"/>
<path d="M7.94897 15.3464H14.6664" stroke="#D0021B" stroke-width="2"/>
<path d="M3.14893 19.3464H5.35413" stroke="#D0021B" stroke-width="2"/>
<path d="M7.94897 19.3464H14.6664" stroke="#D0021B" stroke-width="2"/>
<path d="M7.94897 23.3464H14.6664" stroke="#D0021B" stroke-width="2"/>
</svg>
