<svg width="25" height="20" viewBox="0 0 25 20" fill="none" xmlns="http://www.w3.org/2000/svg">
<path fill-rule="evenodd" clip-rule="evenodd" d="M24.0666 11.0969C24.0666 10.6235 23.9597 10.1713 23.7667 9.75769C23.7468 9.65253 23.7241 9.54753 23.6956 9.44103L21.6051 4.26011L21.591 4.2135C20.8595 2.0356 19.8188 0.0198975 17.1797 0.0198975H7.08968C4.38559 0.0198975 3.43005 2.08554 2.68258 4.2014L0.49586 9.39495C0.179731 9.90146 0 10.4809 0 11.0969V12.709C0 12.9583 0.0294624 13.2021 0.0854839 13.4369C0.0310215 13.5788 0 13.7317 0 13.8929V18.6878C0 19.3909 0.57 19.961 1.27312 19.961H3.91505C4.6178 19.961 5.1878 19.3909 5.1878 18.6878V16.29H19.0297V18.6878C19.0297 19.3909 19.5998 19.961 20.303 19.961H22.7937C23.497 19.961 24.0669 19.3909 24.0669 18.6878V13.8924C24.0669 13.7318 24.0356 13.5782 23.9816 13.4368C24.0374 13.2016 24.0669 12.958 24.0669 12.7088V11.0969H24.0666V11.0969ZM4.23409 4.72156C5.06651 2.37302 5.73591 1.65608 7.08968 1.65608H17.1791C18.523 1.65608 19.2712 2.4557 20.0316 4.71146L21.5571 7.80296C21.059 7.6185 20.5109 7.51613 19.9349 7.51613H4.13167C3.61312 7.51613 3.11758 7.59952 2.66038 7.75043L4.23409 4.72156ZM2.75704 13.3213H5.54457C6.0464 13.3213 6.45371 12.9139 6.45371 12.412C6.45371 11.9101 6.04667 11.5029 5.54457 11.5029H2.75704C2.25516 11.5029 1.84812 11.9101 1.84812 12.412C1.84812 12.9139 2.25516 13.3213 2.75704 13.3213ZM15.3916 13.1392H8.90774C8.58984 13.1392 8.33226 12.8815 8.33226 12.5637C8.33226 12.2454 8.58984 11.9877 8.90774 11.9877H15.3916C15.7099 11.9877 15.9674 12.2454 15.9674 12.5637C15.9674 12.8815 15.7099 13.1392 15.3916 13.1392ZM18.4519 13.3213H21.2393C21.7416 13.3213 22.1488 12.9139 22.1488 12.412C22.1488 11.9101 21.7416 11.5029 21.2393 11.5029H18.4519C17.9499 11.5029 17.5427 11.9101 17.5427 12.412C17.5427 12.9139 17.9496 13.3213 18.4519 13.3213Z" fill="black"/>
</svg>
