<svg width="30" height="20" viewBox="0 0 30 20" fill="none" xmlns="http://www.w3.org/2000/svg">
<path fill-rule="evenodd" clip-rule="evenodd" d="M27.8392 6.46725L27.8552 6.48609C28.9685 7.43761 29.6958 9.20246 29.6945 10.4831V14.2885C29.6945 15.2122 29.3309 16.0503 28.7418 16.6752V18.1509C28.7418 19.014 28.0206 19.7176 27.1315 19.7176H25.1842C24.2945 19.7176 23.5733 19.0152 23.5733 18.1509V17.7734H14.8485H14.8473H6.12182V18.1509C6.12182 19.0152 5.4 19.7176 4.51152 19.7176H2.56364C1.67515 19.7176 0.952727 19.014 0.952727 18.1509V16.6752C0.364242 16.0503 0 15.2122 0 14.2885V10.4831C0 9.20246 0.727273 7.43761 1.84061 6.48609C1.8476 6.47828 1.8541 6.47054 1.86056 6.46284L1.86056 6.46284C1.87315 6.44785 1.88559 6.43303 1.90121 6.41822L2.94182 5.41397C2.07879 5.21822 1.14909 4.49518 1.14909 3.75337C1.14909 2.88912 2.34788 2.58246 3.37273 2.58246C4.44182 2.58246 4.56606 3.31579 4.58 3.83397L7.26424 1.24549C7.8103 0.705488 8.84424 0.28064 9.61697 0.28064H14.8473H14.8485H20.0776C20.8509 0.28064 21.8855 0.705488 22.4309 1.24549L25.1158 3.83397C25.1285 3.31579 25.2527 2.58246 26.323 2.58246C27.3467 2.58246 28.5461 2.88912 28.5461 3.75337C28.5461 4.49518 27.617 5.21822 26.7539 5.41397L27.7945 6.41822C27.8117 6.43448 27.8253 6.45075 27.8392 6.46725ZM9.61697 1.84246C9.28788 1.84246 8.62788 2.08125 8.2503 2.39579L4.7303 5.80791H14.8473H14.8485H24.9661L21.4455 2.39579C21.0679 2.08125 20.4079 1.84246 20.0788 1.84246H14.8485H14.8473H9.61697ZM1.20788 9.90731C1.20788 8.97034 1.94121 8.20973 2.84667 8.20973C3.75152 8.20973 6.70848 9.94549 6.70848 10.8825C6.70848 11.6944 4.48818 11.6398 3.30675 11.6108C3.12477 11.6063 2.96744 11.6025 2.84667 11.6025C1.94121 11.6025 1.20788 10.8449 1.20788 9.90731ZM5.8103 16.1049H6.12242L7.54727 16.1037L5.44061 13.6855H2.28061C2.28061 13.6855 1.80485 14.2837 2.03515 14.9346C2.07212 15.0388 2.12909 15.1431 2.20727 15.2491C2.28485 15.354 2.38424 15.4594 2.51394 15.5606C2.7703 15.7612 3.13273 15.9479 3.64667 16.1079L5.49818 16.1049H5.8103ZM19.3915 16.1061H14.8485H14.8473H10.3042C9.35697 16.1061 8.58788 15.337 8.58788 14.3903H14.8473H14.8485H21.1079C21.1079 15.3382 20.3388 16.1061 19.3915 16.1061ZM14.8485 13.2194H19.7903C20.8206 13.2194 21.657 11.9497 21.657 10.3825H14.8485H14.8473H8.03879C8.03879 11.9491 8.87515 13.2194 9.90545 13.2194H14.8473H14.8485ZM27.6612 14.9358C27.6236 15.04 27.5667 15.1443 27.4885 15.2497C27.4115 15.3546 27.3121 15.46 27.1818 15.5612C26.9261 15.7619 26.563 15.9497 26.0491 16.1085L24.1976 16.1055H23.8855H23.5733H22.1473L24.2551 13.6873H27.4145C27.4145 13.6867 27.8909 14.2837 27.6612 14.9358ZM26.3908 11.6107C26.5721 11.6063 26.7288 11.6025 26.8491 11.6025C27.7545 11.6025 28.4879 10.8437 28.4879 9.90731C28.4879 8.97034 27.7545 8.20973 26.8491 8.20973C25.9448 8.20973 22.9879 9.9467 22.9879 10.8825C22.9879 11.6937 25.2102 11.6395 26.3908 11.6107Z" fill="black"/>
</svg>
