<svg width="28" height="20" viewBox="0 0 28 20" fill="none" xmlns="http://www.w3.org/2000/svg">
<path fill-rule="evenodd" clip-rule="evenodd" d="M26.7366 5.94493H24.7323C24.5796 5.94493 24.4329 6.00392 24.3227 6.10949L23.8949 6.51936C23.1737 4.85063 22.1391 3.20044 20.7416 1.49202C19.9861 0.568918 18.869 0.0395508 17.6764 0.0395508H9.65196C8.45918 0.0395508 7.34203 0.568981 6.58703 1.49208C5.14544 3.25423 4.13139 4.86468 3.42728 6.51347L3.00576 6.10949C2.89557 6.00392 2.7488 5.94493 2.59614 5.94493H0.591962C0.265 5.94493 0 6.20993 0 6.53689V7.90721C0 8.21968 0.242911 8.47822 0.554747 8.49797L2.61481 8.62772C2.30354 9.53727 2.06051 10.8927 2.06051 12.8041C2.06051 14.4627 2.39177 15.5527 2.96829 16.2584V19.4514C2.96829 19.7252 3.19025 19.9471 3.46405 19.9471H5.74437C6.01829 19.9471 6.24032 19.7252 6.24032 19.4514V17.4686H21.0882V19.4514C21.0882 19.7252 21.3102 19.9471 21.584 19.9471H23.8643C24.1381 19.9471 24.3601 19.7252 24.3601 19.4514V16.2584C24.9365 15.5527 25.268 14.4627 25.268 12.8041C25.268 10.8927 25.0249 9.53727 24.7137 8.62772L26.7737 8.49797C27.0855 8.47822 27.3284 8.21968 27.3284 7.90721V6.53689C27.3284 6.20993 27.0635 5.94493 26.7366 5.94493ZM8.27886 2.87607C8.61722 2.46253 9.11772 2.22525 9.65196 2.22525H17.6764C18.2106 2.22525 18.7113 2.46253 19.0496 2.87607C20.0273 4.0712 20.7994 5.21493 21.3961 6.35423L5.91867 6.35715C6.50234 5.24316 7.2788 4.09847 8.27886 2.87607ZM4.53722 13.7739C4.53722 14.6732 5.45722 15.0439 6.59222 15.0439C7.72703 15.0439 8.64709 14.6731 8.64709 13.7739C8.64709 12.8746 7.14089 12.1454 6.00595 12.1454C4.87101 12.1454 4.53722 12.8746 4.53722 13.7739ZM15.8184 14.8564H11.5102C10.8607 14.8564 10.3323 14.3281 10.3323 13.6787C10.3323 13.4965 10.4801 13.3488 10.6623 13.3488H16.6663C16.8485 13.3488 16.9961 13.4965 16.9961 13.6787C16.9961 14.3282 16.4678 14.8564 15.8184 14.8564ZM18.6813 13.7739C18.6813 14.6732 19.6013 15.0439 20.7363 15.0439C21.8713 15.0439 22.7912 14.6731 22.7912 13.7739C22.7912 12.8746 22.4573 12.1454 21.3224 12.1454C20.1877 12.1454 18.6813 12.8746 18.6813 13.7739Z" fill="black"/>
</svg>
