<svg width="130" height="130" viewBox="0 0 130 130" fill="none" xmlns="http://www.w3.org/2000/svg">
<path d="M65 0C29.16 0 0 29.1575 0 65C0 100.842 29.16 130 65 130C100.84 130 130 100.842 130 65C130 29.1575 100.84 0 65 0ZM65 125C31.9175 125 5 98.0825 5 65C5 31.9175 31.9175 5 65 5C98.0825 5 125 31.9175 125 65C125 98.0825 98.0825 125 65 125Z" fill="#D0021B"/>
<path d="M95.63 38.34L57.2075 81.565L34.06 63.0475C32.985 62.185 31.4075 62.3625 30.5475 63.4375C29.685 64.5175 29.86 66.09 30.9375 66.9525L55.9375 86.9525C56.3975 87.32 56.95 87.5 57.5 87.5C58.19 87.5 58.8775 87.215 59.37 86.66L99.37 41.66C100.288 40.63 100.195 39.0475 99.1625 38.1325C98.1275 37.2125 96.55 37.305 95.63 38.34Z" fill="#D0021B"/>
</svg>
