<svg width="28" height="28" viewBox="0 0 28 28" fill="none" xmlns="http://www.w3.org/2000/svg">
<path d="M21.0255 18.6393C20.122 17.7473 18.994 17.7473 18.0962 18.6393C17.4114 19.3183 16.7266 19.9974 16.0532 20.688C15.8691 20.8779 15.7137 20.9182 15.4893 20.7916C15.0461 20.5499 14.5742 20.3542 14.1484 20.0895C12.1629 18.8407 10.4997 17.2351 9.02649 15.4281C8.29561 14.5304 7.64531 13.5693 7.19067 12.4874C7.09859 12.2688 7.11586 12.1249 7.29426 11.9465C7.97909 11.2847 8.64666 10.6056 9.31999 9.92658C10.258 8.9828 10.258 7.87788 9.31424 6.92835C8.77903 6.3874 8.24382 5.85796 7.70861 5.31701C7.15614 4.76456 6.60942 4.20634 6.0512 3.65964C5.14767 2.77916 4.01971 2.77916 3.12194 3.6654C2.43135 4.34446 1.76954 5.04078 1.06744 5.70834C0.417132 6.3241 0.0891012 7.07797 0.0200422 7.95845C-0.0893012 9.39138 0.261749 10.7438 0.756672 12.0616C1.76954 14.7894 3.31186 17.2121 5.1822 19.4334C7.70861 22.4374 10.7242 24.8141 14.252 26.5291C15.8403 27.3002 17.4862 27.8929 19.276 27.9908C20.5076 28.0598 21.578 27.7491 22.4354 26.788C23.0225 26.132 23.6843 25.5335 24.3058 24.9062C25.2266 23.974 25.2323 22.846 24.3173 21.9253C23.2239 20.8261 22.1247 19.7327 21.0255 18.6393Z" fill="white"/>
<path d="M20.9683 13L23 12.6456C22.6807 10.7384 21.7997 9.01125 20.4618 7.63854C19.0468 6.19269 17.2574 5.28129 15.2863 5L15 7.0872C16.5251 7.30661 17.9126 8.00985 19.0083 9.1294C20.0434 10.1871 20.7206 11.526 20.9683 13Z" fill="white"/>
<path d="M23.4903 4.69888C20.9823 2.12597 17.8091 0.501294 14.3061 0L14 2.24072C17.0261 2.67558 19.7696 4.08283 21.9361 6.2994C23.9907 8.40725 25.3389 11.0708 25.8276 14L28 13.6195C27.4289 10.2252 25.8688 7.14495 23.4903 4.69888Z" fill="white"/>
</svg>
